<svg xmlns="http://www.w3.org/2000/svg" height="511pt" version="1.1" viewBox="-88 0 511 511.998" width="511pt" stroke-linecap="round" stroke="black" stroke-width="1.5">
<g id="surface1">
<path d="M 176.335938 7.5 L 160.304688 7.5 C 155.878906 7.5 152.289062 11.089844 152.289062 15.515625 L 152.289062 47.582031 L 184.355469 47.582031 L 184.355469 15.515625 C 184.351562 11.089844 180.765625 7.5 176.335938 7.5 Z M 176.335938 7.5 " style=" stroke:none;fill-rule:nonzero;fill:rgb(90.196078%,39.215686%,43.137255%);fill-opacity:1;" />
<path d="M 14.441406 238.679688 C 10.695312 239.429688 8 242.71875 8 246.539062 L 8 281.492188 C 8 285.3125 10.695312 288.605469 14.441406 289.355469 L 48.078125 296.082031 L 48.078125 231.953125 Z M 14.441406 238.679688 " style=" stroke:none;fill-rule:nonzero;fill:rgb(86.27451%,27.45098%,33.333333%);fill-opacity:1;" />
<path d="M 280.546875 207.902344 L 272.53125 207.902344 C 263.675781 207.902344 256.5 200.726562 256.5 191.871094 L 256.5 167.828125 L 80.144531 167.828125 L 80.144531 191.871094 C 80.144531 200.726562 72.964844 207.902344 64.113281 207.902344 L 56.097656 207.902344 C 51.667969 207.902344 48.078125 211.492188 48.078125 215.917969 L 48.078125 312.113281 C 48.078125 316.539062 51.667969 320.128906 56.097656 320.128906 L 64.113281 320.128906 C 72.964844 320.128906 80.144531 327.308594 80.144531 336.160156 L 80.144531 472.433594 L 256.5 472.433594 L 256.5 336.160156 C 256.5 327.304688 263.675781 320.128906 272.53125 320.128906 L 280.546875 320.128906 C 284.972656 320.128906 288.5625 316.539062 288.5625 312.113281 L 288.5625 215.917969 C 288.5625 211.492188 284.972656 207.902344 280.546875 207.902344 Z M 280.546875 207.902344 " style=" stroke:none;fill-rule:nonzero;fill:rgb(90.196078%,39.215686%,43.137255%);fill-opacity:1;" />
<path d="M 128.238281 424.339844 L 128.238281 232.539062 C 128.238281 210.402344 146.183594 192.457031 168.320312 192.457031 L 256.496094 192.457031 L 256.496094 167.824219 L 80.144531 167.824219 L 80.144531 191.871094 C 80.144531 200.722656 72.964844 207.902344 64.113281 207.902344 L 56.097656 207.902344 C 51.667969 207.902344 48.078125 211.492188 48.078125 215.917969 L 48.078125 312.113281 C 48.078125 316.539062 51.667969 320.128906 56.097656 320.128906 L 64.113281 320.128906 C 72.964844 320.128906 80.144531 327.304688 80.144531 336.160156 L 80.144531 472.433594 L 256.5 472.433594 L 256.5 448.386719 L 152.289062 448.386719 C 139.007812 448.386719 128.238281 437.621094 128.238281 424.339844 Z M 128.238281 424.339844 " style=" stroke:none;fill-rule:nonzero;fill:rgb(86.27451%,27.45098%,33.333333%);fill-opacity:1;" />
<path d="M 232.449219 264.015625 C 232.449219 299.433594 203.738281 328.144531 168.320312 328.144531 C 132.902344 328.144531 104.191406 299.433594 104.191406 264.015625 C 104.191406 228.597656 132.902344 199.886719 168.320312 199.886719 C 203.738281 199.886719 232.449219 228.597656 232.449219 264.015625 Z M 232.449219 264.015625 " style=" stroke:none;fill-rule:nonzero;fill:rgb(86.27451%,27.45098%,33.333333%);fill-opacity:1;" />
<path d="M 168.320312 39.566406 C 119.621094 39.566406 80.144531 79.042969 80.144531 127.742188 L 80.144531 135.757812 L 256.5 135.757812 L 256.5 127.742188 C 256.496094 79.042969 217.019531 39.566406 168.320312 39.566406 Z M 168.320312 39.566406 " style=" stroke:none;fill-rule:nonzero;fill:rgb(100%,50.196078%,52.941176%);fill-opacity:1;" />
<path d="M 192.367188 264.015625 C 192.367188 277.296875 181.601562 288.0625 168.320312 288.0625 C 155.039062 288.0625 144.273438 277.296875 144.273438 264.015625 C 144.273438 250.734375 155.039062 239.96875 168.320312 239.96875 C 181.601562 239.96875 192.367188 250.734375 192.367188 264.015625 Z M 192.367188 264.015625 " style=" stroke:none;fill-rule:nonzero;fill:rgb(90.196078%,39.215686%,43.137255%);fill-opacity:1;" />
<path d="M 280.546875 167.824219 L 56.09375 167.824219 C 51.667969 167.824219 48.078125 164.234375 48.078125 159.808594 L 48.078125 143.773438 C 48.078125 139.347656 51.667969 135.757812 56.09375 135.757812 L 280.546875 135.757812 C 284.972656 135.757812 288.5625 139.347656 288.5625 143.773438 L 288.5625 159.808594 C 288.5625 164.234375 284.972656 167.824219 280.546875 167.824219 Z M 280.546875 167.824219 " style=" stroke:none;fill-rule:nonzero;fill:rgb(90.196078%,39.215686%,43.137255%);fill-opacity:1;" />
<path d="M 322.199219 238.679688 C 325.945312 239.429688 328.644531 242.71875 328.644531 246.539062 L 328.644531 281.492188 C 328.644531 285.3125 325.945312 288.605469 322.199219 289.355469 L 288.5625 296.082031 L 288.5625 231.953125 Z M 322.199219 238.679688 " style=" stroke:none;fill-rule:nonzero;fill:rgb(90.196078%,39.215686%,43.137255%);fill-opacity:1;" />
<path d="M 296.578125 504.5 L 40.0625 504.5 C 35.636719 504.5 32.046875 500.910156 32.046875 496.484375 L 32.046875 480.453125 C 32.046875 476.023438 35.636719 472.4375 40.0625 472.4375 L 296.578125 472.4375 C 301.007812 472.4375 304.59375 476.023438 304.59375 480.453125 L 304.59375 496.484375 C 304.59375 500.910156 301.007812 504.5 296.578125 504.5 Z M 296.578125 504.5 " style=" stroke:none;fill-rule:nonzero;fill:rgb(86.27451%,27.45098%,33.333333%);fill-opacity:1;" />
<path d="M 296.578125 504.5 L 128.238281 504.5 L 128.238281 472.433594 L 296.578125 472.433594 C 301.007812 472.433594 304.59375 476.023438 304.59375 480.449219 L 304.59375 496.484375 C 304.59375 500.910156 301.007812 504.5 296.578125 504.5 Z M 296.578125 504.5 " style=" stroke:none;fill-rule:nonzero;fill:rgb(90.196078%,39.215686%,43.137255%);fill-opacity:1;" />
<path d="M 280.546875 167.824219 L 128.238281 167.824219 L 128.238281 135.757812 L 280.546875 135.757812 C 284.972656 135.757812 288.5625 139.347656 288.5625 143.773438 L 288.5625 159.804688 C 288.5625 164.234375 284.972656 167.824219 280.546875 167.824219 Z M 280.546875 167.824219 " style=" stroke:none;fill-rule:nonzero;fill:rgb(100%,50.196078%,52.941176%);fill-opacity:1;" />
<path d="M 136.257812 111.710938 C 131.828125 111.710938 128.238281 108.121094 128.238281 103.695312 C 128.238281 75.394531 147.464844 52.210938 175.597656 39.933594 C 173.191406 39.734375 170.777344 39.566406 168.320312 39.566406 C 119.621094 39.566406 80.144531 79.042969 80.144531 127.742188 L 80.144531 135.757812 L 256.5 135.757812 L 256.5 127.742188 C 256.5 122.257812 255.929688 116.914062 254.972656 111.710938 Z M 136.257812 111.710938 " style=" stroke:none;fill-rule:nonzero;fill:rgb(90.196078%,39.215686%,43.137255%);fill-opacity:1;" />
<path d="M 184.351562 312.113281 C 148.9375 312.113281 120.222656 283.402344 120.222656 247.984375 C 120.222656 234.371094 124.492188 221.773438 131.726562 211.390625 C 115.097656 222.976562 104.191406 242.210938 104.191406 264.015625 C 104.191406 299.433594 132.902344 328.144531 168.320312 328.144531 C 190.128906 328.144531 209.359375 317.238281 220.945312 300.609375 C 210.5625 307.84375 197.964844 312.113281 184.351562 312.113281 Z M 184.351562 312.113281 " style=" stroke:none;fill-rule:nonzero;fill:rgb(74.509804%,25.490196%,31.372549%);fill-opacity:1;" />
<path d="M 168.320312 232.46875 C 150.925781 232.46875 136.773438 246.621094 136.773438 264.015625 C 136.773438 281.410156 150.925781 295.5625 168.320312 295.5625 C 185.71875 295.5625 199.867188 281.410156 199.867188 264.015625 C 199.867188 246.621094 185.71875 232.46875 168.320312 232.46875 Z M 168.320312 280.5625 C 159.195312 280.5625 151.773438 273.140625 151.773438 264.015625 C 151.773438 254.890625 159.195312 247.46875 168.320312 247.46875 C 177.445312 247.46875 184.867188 254.890625 184.867188 264.015625 C 184.867188 273.140625 177.445312 280.5625 168.320312 280.5625 Z M 168.320312 280.5625 " style=" stroke:none;fill-rule:nonzero;fill:rgb(0%,0%,0%);fill-opacity:1;" />
<path d="M 323.671875 231.324219 L 296.0625 225.804688 L 296.0625 215.921875 C 296.0625 207.363281 289.101562 200.402344 280.546875 200.402344 L 272.53125 200.402344 C 267.824219 200.402344 264 196.574219 264 191.871094 L 264 175.324219 L 280.546875 175.324219 C 289.101562 175.324219 296.0625 168.363281 296.0625 159.808594 L 296.0625 143.777344 C 296.0625 135.21875 289.101562 128.261719 280.546875 128.261719 L 264 128.261719 L 264 127.742188 C 264 83.105469 233.269531 45.511719 191.855469 34.996094 L 191.855469 15.519531 C 191.851562 6.960938 184.894531 0 176.335938 0 L 160.304688 0 C 151.75 0 144.789062 6.960938 144.789062 15.515625 L 144.789062 34.996094 C 103.375 45.507812 72.644531 83.101562 72.644531 127.742188 L 72.644531 128.257812 L 56.097656 128.257812 C 47.539062 128.257812 40.578125 135.21875 40.578125 143.773438 L 40.578125 159.804688 C 40.578125 168.363281 47.539062 175.320312 56.097656 175.320312 L 72.644531 175.320312 L 72.644531 191.871094 C 72.644531 196.574219 68.816406 200.402344 64.113281 200.402344 L 56.097656 200.402344 C 47.539062 200.402344 40.578125 207.363281 40.578125 215.917969 L 40.578125 225.800781 L 12.972656 231.324219 C 5.746094 232.769531 0.5 239.167969 0.5 246.539062 L 0.5 281.492188 C 0.5 288.863281 5.746094 295.261719 12.972656 296.707031 L 40.578125 302.226562 L 40.578125 312.113281 C 40.578125 320.667969 47.539062 327.628906 56.097656 327.628906 L 64.113281 327.628906 C 68.816406 327.628906 72.644531 331.457031 72.644531 336.160156 L 72.644531 464.933594 L 40.0625 464.933594 C 31.507812 464.933594 24.546875 471.894531 24.546875 480.449219 L 24.546875 496.480469 C 24.546875 505.039062 31.507812 511.996094 40.0625 511.996094 L 296.578125 511.996094 C 305.136719 511.996094 312.097656 505.039062 312.097656 496.480469 L 312.097656 480.449219 C 312.097656 471.894531 305.136719 464.933594 296.578125 464.933594 L 264 464.933594 L 264 336.160156 C 264 331.457031 267.828125 327.628906 272.53125 327.628906 L 280.546875 327.628906 C 289.101562 327.628906 296.0625 320.667969 296.0625 312.113281 L 296.0625 302.230469 L 323.671875 296.707031 C 330.898438 295.261719 336.144531 288.863281 336.144531 281.492188 L 336.144531 246.539062 C 336.144531 239.167969 330.898438 232.769531 323.671875 231.324219 Z M 159.789062 15.515625 C 159.789062 15.230469 160.019531 15 160.304688 15 L 176.335938 15 C 176.621094 15 176.851562 15.230469 176.851562 15.515625 L 176.851562 32.449219 C 174.039062 32.199219 171.195312 32.0625 168.320312 32.0625 C 165.445312 32.0625 162.601562 32.199219 159.789062 32.449219 Z M 55.578125 159.808594 L 55.578125 143.773438 C 55.578125 143.488281 55.808594 143.257812 56.09375 143.257812 L 208.40625 143.257812 C 212.546875 143.257812 215.90625 139.902344 215.90625 135.757812 C 215.90625 131.617188 212.546875 128.257812 208.40625 128.257812 L 87.644531 128.257812 L 87.644531 127.742188 C 87.644531 83.257812 123.835938 47.066406 168.320312 47.066406 C 212.804688 47.066406 248.996094 83.257812 248.996094 127.742188 L 248.996094 128.257812 L 240.46875 128.257812 C 236.324219 128.257812 232.96875 131.617188 232.96875 135.757812 C 232.96875 139.902344 236.324219 143.257812 240.46875 143.257812 L 280.546875 143.257812 C 280.832031 143.257812 281.0625 143.488281 281.0625 143.773438 L 281.0625 159.808594 C 281.0625 160.09375 280.832031 160.324219 280.546875 160.324219 L 56.09375 160.324219 C 55.8125 160.324219 55.578125 160.089844 55.578125 159.808594 Z M 15.914062 282 C 15.671875 281.949219 15.496094 281.738281 15.496094 281.492188 L 15.496094 246.539062 C 15.496094 246.292969 15.671875 246.082031 15.914062 246.03125 L 40.578125 241.101562 L 40.578125 286.933594 Z M 280.546875 312.628906 L 272.53125 312.628906 C 259.554688 312.628906 249 323.183594 249 336.160156 L 249 464.933594 L 128.238281 464.933594 C 124.09375 464.933594 120.738281 468.292969 120.738281 472.433594 C 120.738281 476.578125 124.09375 479.933594 128.238281 479.933594 L 296.578125 479.933594 C 296.863281 479.933594 297.09375 480.164062 297.09375 480.449219 L 297.09375 496.484375 C 297.09375 496.769531 296.863281 497 296.578125 497 L 40.0625 497 C 39.777344 497 39.546875 496.769531 39.546875 496.484375 L 39.546875 480.449219 C 39.546875 480.164062 39.777344 479.933594 40.0625 479.933594 L 96.179688 479.933594 C 100.320312 479.933594 103.679688 476.578125 103.679688 472.433594 C 103.679688 468.292969 100.320312 464.933594 96.179688 464.933594 L 87.644531 464.933594 L 87.644531 336.160156 C 87.644531 323.183594 77.085938 312.628906 64.113281 312.628906 L 56.097656 312.628906 C 55.8125 312.628906 55.578125 312.398438 55.578125 312.113281 L 55.578125 215.921875 C 55.578125 215.636719 55.8125 215.402344 56.097656 215.402344 L 64.113281 215.402344 C 77.089844 215.402344 87.644531 204.847656 87.644531 191.871094 L 87.644531 175.324219 L 248.996094 175.324219 L 248.996094 191.871094 C 248.996094 204.847656 259.554688 215.402344 272.53125 215.402344 L 280.546875 215.402344 C 280.832031 215.402344 281.0625 215.636719 281.0625 215.921875 L 281.0625 312.113281 C 281.0625 312.398438 280.832031 312.628906 280.546875 312.628906 Z M 321.144531 281.492188 C 321.144531 281.738281 320.96875 281.949219 320.730469 282 L 296.0625 286.933594 L 296.0625 241.101562 L 320.730469 246.03125 C 320.96875 246.082031 321.144531 246.292969 321.144531 246.539062 Z M 321.144531 281.492188 " style=" stroke:none;fill-rule:nonzero;fill:rgb(0%,0%,0%);fill-opacity:1;" />
<path d="M 197.03125 215.28125 C 200.601562 217.382812 205.199219 216.199219 207.304688 212.632812 C 209.410156 209.0625 208.222656 204.464844 204.65625 202.359375 C 176.519531 185.761719 140.753906 190.285156 117.671875 213.367188 C 94.59375 236.445312 90.066406 272.214844 106.664062 300.351562 C 108.066406 302.722656 110.566406 304.039062 113.132812 304.039062 C 114.425781 304.039062 115.738281 303.703125 116.9375 302.996094 C 120.503906 300.894531 121.6875 296.296875 119.585938 292.726562 C 106.460938 270.484375 110.035156 242.214844 128.277344 223.972656 C 146.519531 205.734375 174.792969 202.15625 197.03125 215.28125 Z M 197.03125 215.28125 " style=" stroke:none;fill-rule:nonzero;fill:rgb(0%,0%,0%);fill-opacity:1;" />
<path d="M 219.707031 225.03125 C 216.140625 227.136719 214.953125 231.734375 217.058594 235.304688 C 230.179688 257.546875 226.605469 285.816406 208.363281 304.058594 C 190.121094 322.300781 161.851562 325.875 139.609375 312.753906 C 136.042969 310.648438 131.441406 311.835938 129.339844 315.402344 C 127.234375 318.96875 128.417969 323.566406 131.984375 325.671875 C 143.316406 332.359375 155.886719 335.617188 168.367188 335.617188 C 186.875 335.617188 205.1875 328.449219 218.96875 314.667969 C 242.050781 291.585938 246.574219 255.816406 229.976562 227.683594 C 227.871094 224.113281 223.273438 222.929688 219.707031 225.03125 Z M 219.707031 225.03125 " style=" stroke:none;fill-rule:nonzero;fill:rgb(0%,0%,0%);fill-opacity:1;" />
</g>
</svg>